<svg width="20" height="18" viewBox="0 0 20 18" fill="none" xmlns="http://www.w3.org/2000/svg">
    <path fill-rule="evenodd" clip-rule="evenodd" d="M15.9349 5.55611C16.5116 3.14164 16.3628 1.07344 14.9953 0.287334C13.6372 -0.498772 11.786 0.399634 10 2.11222C8.21395 0.399634 6.36279 -0.498772 4.99535 0.287334C3.63721 1.07344 3.48837 3.14164 4.06512 5.55611C1.70233 6.25799 0 7.41843 0 9C0 10.5816 1.70233 11.742 4.06512 12.4439C3.48837 14.8584 3.63721 16.9266 4.99535 17.7127C6.36279 18.4988 8.21395 17.6004 10 15.8878C11.786 17.6004 13.6372 18.4988 14.9953 17.7127C16.3628 16.9266 16.5116 14.8584 15.9349 12.4439C18.2977 11.742 20 10.5816 20 9C20 7.41843 18.2977 6.25799 15.9349 5.55611ZM10.9583 3.10421C12.4373 1.70045 13.721 1.15767 14.2978 1.51329C14.8931 1.84083 15.0699 3.21651 14.5955 5.21921C13.8792 5.06948 13.1257 4.95717 12.3629 4.88231C11.9164 4.2553 11.442 3.65636 10.9583 3.10421ZM9.97988 4.13835L10 4.11491L10.0202 4.13837L10.0202 4.13838C10.1909 4.33717 10.3699 4.54562 10.5488 4.78871H10H9.45117C9.63017 4.54561 9.80917 4.33716 9.97988 4.13835ZM12.4372 10.4038L13.1907 9.00002L12.4372 7.59626C12.253 7.26873 12.0606 6.96569 11.8734 6.67097L11.8734 6.67084C11.7771 6.51929 11.6823 6.36993 11.5907 6.22057C11.0884 6.1925 10.5582 6.1925 10 6.1925C9.44188 6.1925 8.91165 6.1925 8.40933 6.22057C8.31779 6.36982 8.22303 6.51908 8.12689 6.67052L8.12666 6.67088L8.1266 6.67097C7.93949 6.96569 7.74709 7.26873 7.56281 7.59626L6.80933 9.00002L7.56281 10.4038C7.74709 10.7313 7.93948 11.0343 8.1266 11.3291L8.12671 11.3292L8.12673 11.3293L8.12701 11.3297L8.12705 11.3298C8.22314 11.4811 8.31784 11.6303 8.40933 11.7795C8.91165 11.8075 9.44188 11.8075 10 11.8075C10.5582 11.8075 11.0884 11.8075 11.5907 11.7795C11.6822 11.6303 11.7769 11.4811 11.873 11.3298L11.873 11.3297L11.8733 11.3293L11.8733 11.3292L11.8735 11.3291C12.0606 11.0343 12.253 10.7313 12.4372 10.4038ZM10 7.23125C10.9582 7.23125 11.7396 8.01736 11.7396 8.99999C11.7396 9.93583 10.9582 10.7313 10 10.7313C9.04189 10.7313 8.2605 9.93583 8.2605 8.99999C8.2605 8.01736 9.04189 7.23125 10 7.23125ZM5.693 16.4867C6.27905 16.8423 7.56277 16.2996 9.04184 14.8958C8.55812 14.3437 8.0837 13.7447 7.63719 13.1177C6.8744 13.0428 6.12091 12.9305 5.40463 12.7808C4.93021 14.7835 5.10696 16.1592 5.693 16.4867ZM6.08364 10.6377L6.35341 11.115L6.63248 11.5923C6.3441 11.5455 6.06503 11.4987 5.81387 11.4425C5.87899 11.1805 5.98131 10.9091 6.08364 10.6377ZM10 13.8851L10.0202 13.8616L10.0202 13.8616L10.0202 13.8615C10.1909 13.6628 10.3699 13.4543 10.5488 13.2113H10H9.45117C9.63016 13.4544 9.80914 13.6628 9.97984 13.8616L9.97986 13.8616L10 13.8851ZM13.6464 6.88499L13.9162 7.36227C14.0185 7.09088 14.1208 6.81948 14.1859 6.55745C13.9348 6.5013 13.6557 6.45451 13.3673 6.40771L13.6464 6.88499ZM14.7256 9C15.0419 9.70188 15.3209 10.4038 15.5535 11.115C17.507 10.5254 18.6047 9.68316 18.6047 9C18.6047 8.31684 17.507 7.47458 15.5535 6.885C15.3209 7.59624 15.0419 8.29812 14.7256 9ZM4.44643 6.885C4.67898 7.59624 4.95805 8.29812 5.27433 9C4.95805 9.70188 4.67898 10.4038 4.44643 11.115C2.49294 10.5254 1.39526 9.68316 1.39526 9C1.39526 8.31684 2.49294 7.47458 4.44643 6.885ZM13.6464 11.115L13.3673 11.5923C13.6557 11.5455 13.9348 11.4987 14.1859 11.4425C14.1208 11.1805 14.0185 10.9091 13.9162 10.6377L13.9162 10.6377L13.9162 10.6377L13.9162 10.6377L13.9162 10.6377L13.6464 11.115ZM14.2978 16.4867C13.721 16.8423 12.4373 16.2996 10.9583 14.8958C11.442 14.3437 11.9164 13.7447 12.3629 13.1177C13.1257 13.0428 13.8792 12.9305 14.5955 12.7808C15.0699 14.7835 14.8931 16.1592 14.2978 16.4867ZM6.35341 6.88499L6.63248 6.40771C6.3441 6.45451 6.06503 6.5013 5.81387 6.55745C5.87899 6.81948 5.98131 7.09088 6.08364 7.36227L6.35341 6.88499ZM5.693 1.51329C6.27905 1.15767 7.56277 1.70045 9.04184 3.10421C8.55812 3.65636 8.0837 4.2553 7.63719 4.88231C6.8744 4.95717 6.12091 5.06948 5.40463 5.21921C4.93021 3.21651 5.10696 1.84083 5.693 1.51329Z" fill="white"/>
</svg>