<svg width="147" height="126" viewBox="0 0 147 126" fill="none" xmlns="http://www.w3.org/2000/svg">
<rect x="73.5" y="63.5" width="73" height="62" stroke="#374151"/>
<path d="M103.4 102.2C102.48 102.2 101.647 102.093 100.9 101.88C100.167 101.653 99.5133 101.333 98.94 100.92C98.3667 100.493 97.8533 99.9933 97.4 99.42L99.46 97.08C100.127 97.9733 100.793 98.5733 101.46 98.88C102.14 99.1867 102.84 99.34 103.56 99.34C103.92 99.34 104.247 99.2933 104.54 99.2C104.833 99.1067 105.06 98.9733 105.22 98.8C105.38 98.6133 105.46 98.3867 105.46 98.12C105.46 97.92 105.407 97.74 105.3 97.58C105.207 97.42 105.073 97.28 104.9 97.16C104.727 97.04 104.52 96.9333 104.28 96.84C104.04 96.7333 103.787 96.6467 103.52 96.58C103.253 96.5 102.98 96.4333 102.7 96.38C101.927 96.2067 101.253 95.9933 100.68 95.74C100.107 95.4867 99.6267 95.18 99.24 94.82C98.8667 94.4467 98.5867 94.0267 98.4 93.56C98.2133 93.08 98.12 92.5467 98.12 91.96C98.12 91.3333 98.26 90.76 98.54 90.24C98.8333 89.7067 99.22 89.2533 99.7 88.88C100.193 88.4933 100.76 88.2 101.4 88C102.04 87.7867 102.707 87.68 103.4 87.68C104.32 87.68 105.107 87.78 105.76 87.98C106.427 88.1667 106.993 88.44 107.46 88.8C107.94 89.16 108.347 89.5933 108.68 90.1L106.58 92.12C106.3 91.7733 105.993 91.4867 105.66 91.26C105.34 91.0333 104.993 90.86 104.62 90.74C104.26 90.62 103.887 90.56 103.5 90.56C103.1 90.56 102.753 90.6133 102.46 90.72C102.18 90.8133 101.96 90.9533 101.8 91.14C101.64 91.3133 101.56 91.5267 101.56 91.78C101.56 92.0067 101.627 92.2 101.76 92.36C101.893 92.52 102.073 92.6667 102.3 92.8C102.527 92.92 102.787 93.0267 103.08 93.12C103.373 93.2 103.68 93.2667 104 93.32C104.733 93.4667 105.393 93.66 105.98 93.9C106.58 94.14 107.093 94.4333 107.52 94.78C107.96 95.1267 108.293 95.54 108.52 96.02C108.76 96.4867 108.88 97.0333 108.88 97.66C108.88 98.6333 108.64 99.46 108.16 100.14C107.693 100.807 107.047 101.32 106.22 101.68C105.407 102.027 104.467 102.2 103.4 102.2ZM117.476 102.22C116.996 102.22 116.536 102.153 116.096 102.02C115.656 101.887 115.256 101.707 114.896 101.48C114.549 101.253 114.256 100.993 114.016 100.7C113.789 100.393 113.636 100.08 113.556 99.76L114.256 99.52L114.076 101.98H111.096V87.2H114.316V93.92L113.656 93.68C113.736 93.3333 113.889 93.0133 114.116 92.72C114.342 92.4133 114.629 92.1467 114.976 91.92C115.322 91.68 115.702 91.4933 116.116 91.36C116.529 91.2267 116.956 91.16 117.396 91.16C118.316 91.16 119.129 91.4 119.836 91.88C120.556 92.3467 121.122 93 121.536 93.84C121.949 94.6667 122.156 95.6133 122.156 96.68C122.156 97.76 121.949 98.72 121.536 99.56C121.136 100.387 120.582 101.04 119.876 101.52C119.169 101.987 118.369 102.22 117.476 102.22ZM116.636 99.52C117.116 99.52 117.536 99.4 117.896 99.16C118.256 98.92 118.529 98.5933 118.716 98.18C118.916 97.7533 119.016 97.2533 119.016 96.68C119.016 96.12 118.916 95.6267 118.716 95.2C118.529 94.7733 118.256 94.4467 117.896 94.22C117.536 93.9933 117.116 93.88 116.636 93.88C116.142 93.88 115.716 93.9933 115.356 94.22C114.996 94.4467 114.716 94.7733 114.516 95.2C114.316 95.6267 114.216 96.12 114.216 96.68C114.216 97.2533 114.316 97.7533 114.516 98.18C114.716 98.5933 114.996 98.92 115.356 99.16C115.716 99.4 116.142 99.52 116.636 99.52Z" fill="#0AFF8A"/>
<path d="M91.064 117L93.256 111.4H94.328L96.512 117H95.28L94.152 113.984C94.12 113.899 94.08 113.789 94.032 113.656C93.9893 113.523 93.944 113.381 93.896 113.232C93.848 113.083 93.8027 112.941 93.76 112.808C93.7173 112.669 93.6853 112.555 93.664 112.464L93.88 112.456C93.848 112.579 93.8107 112.707 93.768 112.84C93.7307 112.968 93.6907 113.101 93.648 113.24C93.6053 113.373 93.56 113.504 93.512 113.632C93.464 113.76 93.4187 113.885 93.376 114.008L92.248 117H91.064ZM92.08 115.824L92.472 114.856H95.04L95.44 115.824H92.08ZM97.1383 117V112.768H98.2263L98.2583 113.632L98.0343 113.728C98.093 113.536 98.197 113.363 98.3463 113.208C98.501 113.048 98.685 112.92 98.8983 112.824C99.1116 112.728 99.3356 112.68 99.5703 112.68C99.8903 112.68 100.157 112.744 100.37 112.872C100.589 113 100.752 113.195 100.858 113.456C100.97 113.712 101.026 114.029 101.026 114.408V117H99.8903V114.496C99.8903 114.304 99.8636 114.144 99.8103 114.016C99.757 113.888 99.6743 113.795 99.5623 113.736C99.4556 113.672 99.3223 113.645 99.1623 113.656C99.0343 113.656 98.9143 113.677 98.8023 113.72C98.6956 113.757 98.6023 113.813 98.5223 113.888C98.4476 113.963 98.3863 114.048 98.3383 114.144C98.2956 114.24 98.2743 114.344 98.2743 114.456V117H97.7143C97.5916 117 97.4823 117 97.3863 117C97.2903 117 97.2076 117 97.1383 117ZM102.523 117V111.696H103.659V117H102.523ZM101.731 113.784V112.768H104.523V113.784H101.731ZM105.359 117V112.768H106.495V117H105.359ZM105.919 111.896C105.701 111.896 105.53 111.843 105.407 111.736C105.285 111.629 105.223 111.477 105.223 111.28C105.223 111.099 105.285 110.952 105.407 110.84C105.535 110.723 105.706 110.664 105.919 110.664C106.138 110.664 106.309 110.72 106.431 110.832C106.554 110.939 106.615 111.088 106.615 111.28C106.615 111.467 106.551 111.616 106.423 111.728C106.301 111.84 106.133 111.896 105.919 111.896ZM107.701 117V112.768H108.797L108.821 113.576L108.653 113.608C108.711 113.469 108.789 113.344 108.885 113.232C108.981 113.12 109.093 113.024 109.221 112.944C109.354 112.864 109.493 112.803 109.637 112.76C109.781 112.712 109.925 112.688 110.069 112.688C110.287 112.688 110.485 112.723 110.661 112.792C110.837 112.861 110.986 112.971 111.109 113.12C111.231 113.264 111.327 113.456 111.397 113.696L111.221 113.68L111.277 113.552C111.346 113.424 111.434 113.309 111.541 113.208C111.647 113.101 111.767 113.011 111.901 112.936C112.034 112.856 112.173 112.795 112.317 112.752C112.461 112.709 112.602 112.688 112.741 112.688C113.071 112.688 113.346 112.755 113.565 112.888C113.783 113.016 113.946 113.211 114.053 113.472C114.165 113.733 114.221 114.053 114.221 114.432V117H113.085V114.512C113.085 114.32 113.058 114.163 113.005 114.04C112.951 113.917 112.874 113.827 112.773 113.768C112.671 113.704 112.541 113.672 112.381 113.672C112.258 113.672 112.143 113.693 112.037 113.736C111.935 113.773 111.845 113.829 111.765 113.904C111.69 113.973 111.631 114.056 111.589 114.152C111.546 114.248 111.525 114.355 111.525 114.472V117H110.389V114.504C110.389 114.328 110.359 114.179 110.301 114.056C110.247 113.928 110.17 113.832 110.069 113.768C109.967 113.704 109.842 113.672 109.693 113.672C109.57 113.672 109.455 113.693 109.349 113.736C109.247 113.773 109.159 113.829 109.085 113.904C109.01 113.973 108.949 114.056 108.901 114.152C108.858 114.248 108.837 114.352 108.837 114.464V117H107.701ZM117.27 117.08C116.838 117.08 116.452 116.987 116.11 116.8C115.774 116.608 115.508 116.347 115.31 116.016C115.118 115.685 115.022 115.307 115.022 114.88C115.022 114.453 115.118 114.077 115.31 113.752C115.508 113.421 115.774 113.16 116.11 112.968C116.452 112.776 116.838 112.68 117.27 112.68C117.697 112.68 118.078 112.776 118.414 112.968C118.756 113.16 119.022 113.421 119.214 113.752C119.406 114.077 119.502 114.453 119.502 114.88C119.502 115.307 119.406 115.685 119.214 116.016C119.022 116.347 118.756 116.608 118.414 116.8C118.078 116.987 117.697 117.08 117.27 117.08ZM117.27 116.088C117.478 116.088 117.665 116.037 117.83 115.936C117.996 115.829 118.124 115.685 118.214 115.504C118.31 115.317 118.358 115.109 118.358 114.88C118.358 114.645 118.31 114.437 118.214 114.256C118.124 114.069 117.996 113.925 117.83 113.824C117.665 113.717 117.478 113.664 117.27 113.664C117.057 113.664 116.868 113.717 116.702 113.824C116.537 113.931 116.406 114.075 116.31 114.256C116.214 114.437 116.169 114.645 116.174 114.88C116.169 115.109 116.214 115.317 116.31 115.504C116.406 115.685 116.537 115.829 116.702 115.936C116.868 116.037 117.057 116.088 117.27 116.088ZM120.357 117V112.768H121.445L121.477 113.632L121.253 113.728C121.312 113.536 121.416 113.363 121.565 113.208C121.72 113.048 121.904 112.92 122.117 112.824C122.33 112.728 122.554 112.68 122.789 112.68C123.109 112.68 123.376 112.744 123.589 112.872C123.808 113 123.97 113.195 124.077 113.456C124.189 113.712 124.245 114.029 124.245 114.408V117H123.109V114.496C123.109 114.304 123.082 114.144 123.029 114.016C122.976 113.888 122.893 113.795 122.781 113.736C122.674 113.672 122.541 113.645 122.381 113.656C122.253 113.656 122.133 113.677 122.021 113.72C121.914 113.757 121.821 113.813 121.741 113.888C121.666 113.963 121.605 114.048 121.557 114.144C121.514 114.24 121.493 114.344 121.493 114.456V117H120.933C120.81 117 120.701 117 120.605 117C120.509 117 120.426 117 120.357 117ZM125.887 118.84L126.815 116.664L126.831 117.32L124.767 112.768H126.055L127.087 115.208C127.129 115.299 127.169 115.405 127.207 115.528C127.249 115.645 127.284 115.76 127.311 115.872L127.119 115.952C127.151 115.861 127.188 115.757 127.231 115.64C127.273 115.523 127.316 115.397 127.359 115.264L128.247 112.768H129.543L127.767 117L127.039 118.84H125.887Z" fill="#0AFF8A"/>
<path d="M79.192 76.056C78.7867 76.056 78.4187 75.9733 78.088 75.808C77.7627 75.6373 77.4907 75.392 77.272 75.072L77.92 74.352C78.1493 74.608 78.3573 74.784 78.544 74.88C78.7307 74.9707 78.936 75.016 79.16 75.016C79.3467 75.016 79.5147 74.976 79.664 74.896C79.8133 74.816 79.9307 74.7067 80.016 74.568C80.1013 74.4293 80.144 74.2747 80.144 74.104C80.144 73.928 80.1013 73.7707 80.016 73.632C79.9307 73.4933 79.816 73.384 79.672 73.304C79.5333 73.2187 79.3733 73.176 79.192 73.176C79.0747 73.176 78.9653 73.1867 78.864 73.208C78.7627 73.224 78.6507 73.2587 78.528 73.312C78.4053 73.36 78.256 73.432 78.08 73.528L77.536 72.808L77.88 70.368H81.032V71.4H78.488L78.784 71.048L78.52 72.824L78.136 72.64C78.216 72.5653 78.3253 72.496 78.464 72.432C78.608 72.368 78.7627 72.3147 78.928 72.272C79.0987 72.2293 79.264 72.208 79.424 72.208C79.776 72.208 80.088 72.288 80.36 72.448C80.6373 72.608 80.856 72.832 81.016 73.12C81.1813 73.4027 81.264 73.728 81.264 74.096C81.264 74.464 81.1733 74.7973 80.992 75.096C80.8107 75.3893 80.5627 75.624 80.248 75.8C79.9333 75.9707 79.5813 76.056 79.192 76.056ZM83.3993 75.608V71.064L83.6953 71.6L82.5273 72.168L82.2953 71.104L83.8553 70.32H84.5833V75.608H83.3993ZM82.4153 76V74.92H85.5913V76H82.4153Z" fill="#0AFF8A"/>
<path d="M121.704 77.608V73.064L122 73.6L120.832 74.168L120.6 73.104L122.16 72.32H122.888V77.608H121.704ZM120.72 78V76.92H123.896V78H120.72ZM124.896 78L124.632 77.344L126.288 75.512C126.379 75.416 126.475 75.304 126.576 75.176C126.683 75.048 126.784 74.9173 126.88 74.784C126.981 74.6453 127.061 74.512 127.12 74.384C127.179 74.2507 127.208 74.1307 127.208 74.024C127.208 73.9013 127.181 73.7947 127.128 73.704C127.075 73.608 126.997 73.5333 126.896 73.48C126.795 73.4267 126.669 73.4 126.52 73.4C126.381 73.4 126.251 73.4373 126.128 73.512C126.005 73.5813 125.891 73.6853 125.784 73.824C125.677 73.9627 125.584 74.1307 125.504 74.328L124.608 73.824C124.715 73.5147 124.867 73.2453 125.064 73.016C125.261 72.7867 125.496 72.608 125.768 72.48C126.04 72.352 126.331 72.288 126.64 72.288C126.965 72.2933 127.259 72.3627 127.52 72.496C127.781 72.6293 127.987 72.816 128.136 73.056C128.285 73.296 128.36 73.5733 128.36 73.888C128.36 74.0053 128.347 74.1253 128.32 74.248C128.299 74.3707 128.259 74.4987 128.2 74.632C128.147 74.7653 128.075 74.9067 127.984 75.056C127.899 75.2 127.792 75.3547 127.664 75.52C127.541 75.68 127.4 75.848 127.24 76.024L125.968 77.408L125.808 76.92H128.592V78H124.896ZM130.423 77.608V73.064L130.719 73.6L129.551 74.168L129.319 73.104L130.879 72.32H131.607V77.608H130.423ZM129.439 78V76.92H132.615V78H129.439ZM134.047 78.088C133.839 78.088 133.679 78.0293 133.567 77.912C133.455 77.7947 133.399 77.6267 133.399 77.408C133.399 77.2107 133.457 77.0507 133.575 76.928C133.697 76.8 133.855 76.736 134.047 76.736C134.249 76.736 134.407 76.7947 134.519 76.912C134.631 77.0293 134.687 77.1947 134.687 77.408C134.687 77.6107 134.628 77.776 134.511 77.904C134.393 78.0267 134.239 78.088 134.047 78.088ZM135.775 78L138.039 72.912L138.327 73.432H135.431V72.368H139.023L139.143 72.984L136.999 78H135.775ZM141.586 78C141.303 78 141.036 77.9493 140.786 77.848C140.54 77.7467 140.324 77.6053 140.138 77.424C139.956 77.2427 139.812 77.0293 139.706 76.784C139.604 76.5387 139.554 76.2747 139.554 75.992C139.554 75.816 139.575 75.6373 139.618 75.456C139.66 75.2693 139.719 75.0773 139.794 74.88C139.874 74.6827 139.97 74.4773 140.082 74.264C140.194 74.0507 140.319 73.8293 140.458 73.6L141.226 72.312H142.346L142.378 72.392L141.362 74.032C141.218 74.2667 141.09 74.4907 140.978 74.704C140.871 74.9173 140.775 75.1227 140.69 75.32C140.61 75.5173 140.535 75.7173 140.466 75.92L140.234 75.28C140.303 75.0987 140.396 74.936 140.514 74.792C140.631 74.6427 140.764 74.5173 140.914 74.416C141.063 74.3093 141.22 74.2293 141.386 74.176C141.551 74.1173 141.714 74.088 141.874 74.088C142.188 74.088 142.476 74.1733 142.738 74.344C143.004 74.5093 143.215 74.7307 143.37 75.008C143.53 75.2853 143.61 75.5893 143.61 75.92C143.61 76.32 143.522 76.6773 143.346 76.992C143.175 77.3013 142.935 77.5467 142.626 77.728C142.322 77.9093 141.975 78 141.586 78ZM141.602 76.984C141.783 76.984 141.943 76.944 142.082 76.864C142.226 76.7787 142.338 76.6613 142.418 76.512C142.498 76.3627 142.538 76.192 142.538 76C142.538 75.8347 142.495 75.68 142.41 75.536C142.33 75.3867 142.218 75.2667 142.074 75.176C141.935 75.0853 141.78 75.04 141.61 75.04C141.423 75.04 141.255 75.0853 141.106 75.176C140.962 75.2613 140.847 75.376 140.762 75.52C140.682 75.6587 140.642 75.816 140.642 75.992C140.642 76.184 140.682 76.3547 140.762 76.504C140.847 76.648 140.962 76.7653 141.106 76.856C141.25 76.9413 141.415 76.984 141.602 76.984Z" fill="#0AFF8A"/>
<path d="M38.44 39V25H41.84V39H38.44ZM29.76 39V25H33.16V39H29.76ZM31.08 33.54L31.1 30.5H40.24V33.54H31.08Z" fill="#02F4E4"/>
<path d="M20.256 54V48.4H21.456V54H20.256ZM16.728 54V48.4H17.928V54H16.728ZM17.208 51.752L17.216 50.664H20.872V51.752H17.208ZM23.3475 55.84L24.2755 53.664L24.2915 54.32L22.2275 49.768H23.5155L24.5475 52.208C24.5902 52.2987 24.6302 52.4053 24.6675 52.528C24.7102 52.6453 24.7448 52.76 24.7715 52.872L24.5795 52.952C24.6115 52.8613 24.6488 52.7573 24.6915 52.64C24.7342 52.5227 24.7768 52.3973 24.8195 52.264L25.7075 49.768H27.0035L25.2275 54L24.4995 55.84H23.3475ZM29.1928 54.08C28.8248 54.08 28.4941 53.9867 28.2008 53.8C27.9074 53.608 27.6754 53.3493 27.5048 53.024C27.3394 52.6933 27.2568 52.312 27.2568 51.88C27.2568 51.4587 27.3394 51.0827 27.5048 50.752C27.6754 50.4213 27.9048 50.16 28.1928 49.968C28.4861 49.776 28.8194 49.68 29.1928 49.68C29.3901 49.68 29.5794 49.712 29.7608 49.776C29.9474 49.8347 30.1128 49.9173 30.2568 50.024C30.4061 50.1307 30.5261 50.2507 30.6168 50.384C30.7074 50.512 30.7581 50.648 30.7688 50.792L30.4808 50.84V48.08H31.6168V54H30.5448L30.4968 53.024L30.7208 53.048C30.7101 53.1813 30.6621 53.3093 30.5768 53.432C30.4914 53.5547 30.3768 53.6667 30.2328 53.768C30.0941 53.864 29.9341 53.9413 29.7528 54C29.5768 54.0533 29.3901 54.08 29.1928 54.08ZM29.4488 53.136C29.6621 53.136 29.8488 53.0827 30.0088 52.976C30.1688 52.8693 30.2941 52.7227 30.3848 52.536C30.4754 52.3493 30.5208 52.1307 30.5208 51.88C30.5208 51.6347 30.4754 51.4187 30.3848 51.232C30.2941 51.04 30.1688 50.8933 30.0088 50.792C29.8488 50.6853 29.6621 50.632 29.4488 50.632C29.2354 50.632 29.0488 50.6853 28.8888 50.792C28.7341 50.8933 28.6114 51.04 28.5208 51.232C28.4354 51.4187 28.3928 51.6347 28.3928 51.88C28.3928 52.1307 28.4354 52.3493 28.5208 52.536C28.6114 52.7227 28.7341 52.8693 28.8888 52.976C29.0488 53.0827 29.2354 53.136 29.4488 53.136ZM32.7243 54V49.768H33.8203L33.8603 51.128L33.6683 50.848C33.7323 50.6293 33.8363 50.432 33.9803 50.256C34.1243 50.0747 34.2923 49.9333 34.4843 49.832C34.6816 49.7307 34.8869 49.68 35.1003 49.68C35.1909 49.68 35.2789 49.688 35.3643 49.704C35.4496 49.72 35.5216 49.7387 35.5803 49.76L35.2763 51.008C35.2123 50.976 35.1349 50.9493 35.0443 50.928C34.9536 50.9013 34.8603 50.888 34.7643 50.888C34.6363 50.888 34.5163 50.912 34.4043 50.96C34.2976 51.0027 34.2043 51.0667 34.1243 51.152C34.0443 51.232 33.9803 51.328 33.9323 51.44C33.8896 51.552 33.8683 51.6747 33.8683 51.808V54H32.7243ZM38.0204 54.08C37.5884 54.08 37.2017 53.9867 36.8604 53.8C36.5244 53.608 36.2577 53.3467 36.0604 53.016C35.8684 52.6853 35.7724 52.3067 35.7724 51.88C35.7724 51.4533 35.8684 51.0773 36.0604 50.752C36.2577 50.4213 36.5244 50.16 36.8604 49.968C37.2017 49.776 37.5884 49.68 38.0204 49.68C38.447 49.68 38.8284 49.776 39.1644 49.968C39.5057 50.16 39.7724 50.4213 39.9644 50.752C40.1564 51.0773 40.2524 51.4533 40.2524 51.88C40.2524 52.3067 40.1564 52.6853 39.9644 53.016C39.7724 53.3467 39.5057 53.608 39.1644 53.8C38.8284 53.9867 38.447 54.08 38.0204 54.08ZM38.0204 53.088C38.2284 53.088 38.415 53.0373 38.5804 52.936C38.7457 52.8293 38.8737 52.6853 38.9644 52.504C39.0604 52.3173 39.1084 52.1093 39.1084 51.88C39.1084 51.6453 39.0604 51.4373 38.9644 51.256C38.8737 51.0693 38.7457 50.9253 38.5804 50.824C38.415 50.7173 38.2284 50.664 38.0204 50.664C37.807 50.664 37.6177 50.7173 37.4524 50.824C37.287 50.9307 37.1564 51.0747 37.0604 51.256C36.9644 51.4373 36.919 51.6453 36.9244 51.88C36.919 52.1093 36.9644 52.3173 37.0604 52.504C37.1564 52.6853 37.287 52.8293 37.4524 52.936C37.6177 53.0373 37.807 53.088 38.0204 53.088ZM43.0351 55.84C42.6991 55.84 42.3684 55.7893 42.0431 55.688C41.7177 55.592 41.4537 55.4667 41.2511 55.312L41.6511 54.496C41.7577 54.5707 41.8804 54.6373 42.0191 54.696C42.1577 54.7547 42.3017 54.8 42.4511 54.832C42.6057 54.864 42.7631 54.88 42.9231 54.88C43.2004 54.88 43.4271 54.8373 43.6031 54.752C43.7844 54.6667 43.9204 54.5387 44.0111 54.368C44.1017 54.2027 44.1471 53.9893 44.1471 53.728V52.992L44.3391 53.032C44.3071 53.208 44.2191 53.3707 44.0751 53.52C43.9311 53.664 43.7497 53.7813 43.5311 53.872C43.3124 53.9573 43.0884 54 42.8591 54C42.4644 54 42.1151 53.9093 41.8111 53.728C41.5071 53.5467 41.2671 53.296 41.0911 52.976C40.9151 52.656 40.8271 52.288 40.8271 51.872C40.8271 51.4453 40.9124 51.0693 41.0831 50.744C41.2591 50.4133 41.4964 50.1547 41.7951 49.968C42.0991 49.776 42.4431 49.68 42.8271 49.68C42.9871 49.68 43.1391 49.6987 43.2831 49.736C43.4324 49.7733 43.5684 49.8267 43.6911 49.896C43.8191 49.96 43.9311 50.0347 44.0271 50.12C44.1284 50.2 44.2111 50.288 44.2751 50.384C44.3391 50.48 44.3791 50.576 44.3951 50.672L44.1631 50.736L44.1951 49.768H45.2831V53.68C45.2831 54.0267 45.2324 54.3333 45.1311 54.6C45.0297 54.8667 44.8804 55.0907 44.6831 55.272C44.4911 55.4587 44.2537 55.6 43.9711 55.696C43.6937 55.792 43.3817 55.84 43.0351 55.84ZM43.0671 53.088C43.2911 53.088 43.4857 53.0373 43.6511 52.936C43.8217 52.8347 43.9524 52.6933 44.0431 52.512C44.1337 52.3307 44.1791 52.1173 44.1791 51.872C44.1791 51.632 44.1337 51.4213 44.0431 51.24C43.9524 51.0533 43.8217 50.9093 43.6511 50.808C43.4857 50.7067 43.2911 50.656 43.0671 50.656C42.8484 50.656 42.6537 50.7093 42.4831 50.816C42.3177 50.9173 42.1897 51.0587 42.0991 51.24C42.0084 51.4213 41.9631 51.632 41.9631 51.872C41.9631 52.112 42.0084 52.3253 42.0991 52.512C42.1897 52.6933 42.3177 52.8347 42.4831 52.936C42.6537 53.0373 42.8484 53.088 43.0671 53.088ZM48.4198 54.08C47.9611 54.08 47.5611 53.9867 47.2198 53.8C46.8784 53.6133 46.6118 53.3573 46.4198 53.032C46.2278 52.7067 46.1318 52.3333 46.1318 51.912C46.1318 51.5867 46.1851 51.288 46.2918 51.016C46.3984 50.744 46.5478 50.5093 46.7398 50.312C46.9318 50.1093 47.1584 49.9547 47.4198 49.848C47.6864 49.736 47.9744 49.68 48.2838 49.68C48.5718 49.68 48.8384 49.7333 49.0838 49.84C49.3291 49.9413 49.5398 50.088 49.7158 50.28C49.8971 50.4667 50.0358 50.688 50.1318 50.944C50.2278 51.2 50.2704 51.48 50.2598 51.784L50.2517 52.136H46.8518L46.6678 51.44H49.3158L49.1878 51.584V51.408C49.1771 51.264 49.1291 51.1333 49.0438 51.016C48.9638 50.8987 48.8598 50.808 48.7318 50.744C48.6038 50.68 48.4598 50.648 48.2998 50.648C48.0651 50.648 47.8651 50.6933 47.6998 50.784C47.5398 50.8747 47.4171 51.008 47.3318 51.184C47.2464 51.36 47.2038 51.5733 47.2038 51.824C47.2038 52.08 47.2571 52.3013 47.3638 52.488C47.4758 52.6747 47.6304 52.8213 47.8278 52.928C48.0304 53.0293 48.2678 53.08 48.5398 53.08C48.7264 53.08 48.8971 53.0507 49.0518 52.992C49.2064 52.9333 49.3718 52.832 49.5478 52.688L50.0918 53.448C49.9371 53.5867 49.7664 53.704 49.5798 53.8C49.3931 53.8907 49.2011 53.96 49.0038 54.008C48.8064 54.056 48.6118 54.08 48.4198 54.08ZM51.0993 54V49.768H52.1873L52.2193 50.632L51.9953 50.728C52.0539 50.536 52.1579 50.3627 52.3073 50.208C52.4619 50.048 52.6459 49.92 52.8593 49.824C53.0726 49.728 53.2966 49.68 53.5313 49.68C53.8513 49.68 54.1179 49.744 54.3313 49.872C54.5499 50 54.7126 50.1947 54.8193 50.456C54.9313 50.712 54.9873 51.0293 54.9873 51.408V54H53.8513V51.496C53.8513 51.304 53.8246 51.144 53.7713 51.016C53.7179 50.888 53.6353 50.7947 53.5233 50.736C53.4166 50.672 53.2833 50.6453 53.1233 50.656C52.9953 50.656 52.8753 50.6773 52.7633 50.72C52.6566 50.7573 52.5633 50.8133 52.4833 50.888C52.4086 50.9627 52.3473 51.048 52.2993 51.144C52.2566 51.24 52.2353 51.344 52.2353 51.456V54H51.6753C51.5526 54 51.4433 54 51.3473 54C51.2513 54 51.1686 54 51.0993 54Z" fill="#02F4E4"/>
<path d="M5.704 12.608V8.064L6 8.6L4.832 9.168L4.6 8.104L6.16 7.32H6.888V12.608H5.704ZM4.72 13V11.92H7.896V13H4.72Z" fill="#02F4E4"/>
<path d="M48.704 14.608V10.064L49 10.6L47.832 11.168L47.6 10.104L49.16 9.32H49.888V14.608H48.704ZM47.72 15V13.92H50.896V15H47.72ZM52.3279 15.088C52.1199 15.088 51.9599 15.0293 51.8479 14.912C51.7359 14.7947 51.6799 14.6267 51.6799 14.408C51.6799 14.2107 51.7386 14.0507 51.8559 13.928C51.9786 13.8 52.1359 13.736 52.3279 13.736C52.5306 13.736 52.6879 13.7947 52.7999 13.912C52.9119 14.0293 52.9679 14.1947 52.9679 14.408C52.9679 14.6107 52.9093 14.776 52.7919 14.904C52.6746 15.0267 52.5199 15.088 52.3279 15.088ZM55.9205 15.08C55.4405 15.08 55.0298 14.9653 54.6885 14.736C54.3525 14.5067 54.0938 14.1787 53.9125 13.752C53.7365 13.32 53.6485 12.8027 53.6485 12.2C53.6485 11.5973 53.7365 11.0827 53.9125 10.656C54.0938 10.224 54.3525 9.89333 54.6885 9.664C55.0298 9.43467 55.4405 9.32 55.9205 9.32C56.4005 9.32 56.8112 9.43467 57.1525 9.664C57.4938 9.89333 57.7525 10.224 57.9285 10.656C58.1098 11.0827 58.2005 11.5973 58.2005 12.2C58.2005 12.8027 58.1098 13.32 57.9285 13.752C57.7525 14.1787 57.4938 14.5067 57.1525 14.736C56.8112 14.9653 56.4005 15.08 55.9205 15.08ZM55.9205 14.048C56.2778 14.048 56.5552 13.888 56.7525 13.568C56.9498 13.248 57.0485 12.792 57.0485 12.2C57.0485 11.5973 56.9498 11.1333 56.7525 10.808C56.5552 10.4827 56.2778 10.32 55.9205 10.32C55.5578 10.32 55.2778 10.4827 55.0805 10.808C54.8885 11.1333 54.7925 11.5973 54.7925 12.2C54.7925 12.792 54.8885 13.248 55.0805 13.568C55.2778 13.888 55.5578 14.048 55.9205 14.048ZM61.1471 15.08C60.6671 15.08 60.2564 14.9653 59.9151 14.736C59.5791 14.5067 59.3204 14.1787 59.1391 13.752C58.9631 13.32 58.8751 12.8027 58.8751 12.2C58.8751 11.5973 58.9631 11.0827 59.1391 10.656C59.3204 10.224 59.5791 9.89333 59.9151 9.664C60.2564 9.43467 60.6671 9.32 61.1471 9.32C61.6271 9.32 62.0377 9.43467 62.3791 9.664C62.7204 9.89333 62.9791 10.224 63.1551 10.656C63.3364 11.0827 63.4271 11.5973 63.4271 12.2C63.4271 12.8027 63.3364 13.32 63.1551 13.752C62.9791 14.1787 62.7204 14.5067 62.3791 14.736C62.0377 14.9653 61.6271 15.08 61.1471 15.08ZM61.1471 14.048C61.5044 14.048 61.7817 13.888 61.9791 13.568C62.1764 13.248 62.2751 12.792 62.2751 12.2C62.2751 11.5973 62.1764 11.1333 61.9791 10.808C61.7817 10.4827 61.5044 10.32 61.1471 10.32C60.7844 10.32 60.5044 10.4827 60.3071 10.808C60.1151 11.1333 60.0191 11.5973 60.0191 12.2C60.0191 12.792 60.1151 13.248 60.3071 13.568C60.5044 13.888 60.7844 14.048 61.1471 14.048ZM66.1336 15.024C65.7603 15.024 65.4216 14.952 65.1176 14.808C64.8136 14.6587 64.571 14.4587 64.3896 14.208C64.2083 13.9573 64.1176 13.68 64.1176 13.376C64.1176 13.1787 64.1416 13 64.1896 12.84C64.243 12.68 64.3203 12.536 64.4216 12.408C64.5283 12.28 64.6563 12.168 64.8056 12.072C64.955 11.976 65.1283 11.8933 65.3256 11.824L65.2456 12.104C65.0963 12.0453 64.963 11.976 64.8456 11.896C64.7283 11.8107 64.627 11.7147 64.5416 11.608C64.4616 11.5013 64.3976 11.3867 64.3496 11.264C64.307 11.136 64.2856 11.0027 64.2856 10.864C64.2856 10.576 64.3683 10.3173 64.5336 10.088C64.699 9.85867 64.9203 9.67733 65.1976 9.544C65.475 9.40533 65.787 9.336 66.1336 9.336C66.475 9.336 66.7843 9.40533 67.0616 9.544C67.339 9.67733 67.5603 9.85867 67.7256 10.088C67.891 10.3173 67.9736 10.576 67.9736 10.864C67.9736 11.0027 67.9523 11.136 67.9096 11.264C67.867 11.3867 67.8056 11.4987 67.7256 11.6C67.6456 11.7013 67.5443 11.7947 67.4216 11.88C67.3043 11.9653 67.1656 12.04 67.0056 12.104L66.9576 11.856C67.1336 11.9093 67.2936 11.984 67.4376 12.08C67.587 12.1707 67.7123 12.2827 67.8136 12.416C67.9203 12.544 68.003 12.688 68.0616 12.848C68.1203 13.008 68.1496 13.184 68.1496 13.376C68.1496 13.6853 68.059 13.9653 67.8776 14.216C67.6963 14.4667 67.4536 14.664 67.1496 14.808C66.8456 14.952 66.507 15.024 66.1336 15.024ZM66.1336 14.04C66.2936 14.04 66.4403 14.008 66.5736 13.944C66.707 13.88 66.811 13.7947 66.8856 13.688C66.9603 13.576 66.9976 13.448 66.9976 13.304C66.9976 13.1547 66.9603 13.024 66.8856 12.912C66.811 12.7947 66.707 12.7013 66.5736 12.632C66.4456 12.5627 66.299 12.528 66.1336 12.528C65.9683 12.528 65.819 12.5627 65.6856 12.632C65.5576 12.7013 65.4563 12.7947 65.3816 12.912C65.307 13.024 65.2696 13.1547 65.2696 13.304C65.2696 13.4427 65.307 13.568 65.3816 13.68C65.4563 13.7867 65.5576 13.8747 65.6856 13.944C65.819 14.008 65.9683 14.04 66.1336 14.04ZM66.1336 11.552C66.2776 11.552 66.4056 11.5253 66.5176 11.472C66.6296 11.4133 66.7176 11.3387 66.7816 11.248C66.851 11.152 66.8856 11.04 66.8856 10.912C66.8856 10.7893 66.851 10.68 66.7816 10.584C66.7176 10.4827 66.6296 10.4027 66.5176 10.344C66.4056 10.2853 66.2776 10.256 66.1336 10.256C65.9896 10.256 65.859 10.2853 65.7416 10.344C65.6296 10.4027 65.539 10.4827 65.4696 10.584C65.4056 10.68 65.3736 10.7893 65.3736 10.912C65.3736 11.04 65.4056 11.152 65.4696 11.248C65.539 11.3387 65.6296 11.4133 65.7416 11.472C65.859 11.5253 65.9896 11.552 66.1336 11.552Z" fill="#02F4E4"/>
<line y1="62.5" x2="73" y2="62.5" stroke="#374151"/>
<line x1="72.5" y1="63" x2="72.5" stroke="#374151"/>
</svg>
